<svg xmlns="http://www.w3.org/2000/svg" viewBox="0 0 750 500"><g id="freepik--Shadow--inject-6"><ellipse cx="364.77" cy="441.19" rx="275.48" ry="27.15" style="fill:#ebebeb"></ellipse></g><g id="freepik--Floor--inject-6"><polygon points="58.08 372.01 137.31 371.77 216.54 371.68 375 371.51 533.46 371.68 612.69 371.76 691.92 372.01 612.69 372.25 533.46 372.34 375 372.51 216.54 372.34 137.31 372.25 58.08 372.01" style="fill:#263238"></polygon></g><g id="freepik--Plant--inject-6"><path d="M631.1,284.94a70.12,70.12,0,0,1,2.26,12.75c-.12.21-.1,1,0,.79,0,.7,1.09.57,1.09-.12,0-.45,0-.9,0-1.34,2.49-3.09,6.11-5,9-7.74a17,17,0,0,0,4.95-7.88c2.42-8.36.15-17.22,3.07-25.56,2.51-7.19,7-13.44,10.84-20,4-6.89,7-14.13,7.3-22.2.24-6.18-.5-14.41-5.2-19-5-4.91-11.17-1.23-15,3.15-11.07,12.71-16.19,28.77-18.27,45.19-1.14,9.09-2.32,18.24-2,27.41A74.17,74.17,0,0,0,631.1,284.94Z" style="fill:#4D1313"></path><path d="M633.31,301a157,157,0,0,1,.3-25.75s0,0,0-.1c-.14-7-.69-13.89-.42-20.86a124.25,124.25,0,0,1,3.07-22.38.07.07,0,0,1,.13,0,146,146,0,0,0-2.42,21.88q-.21,5.89.09,11.8c.07,1.28.19,2.56.27,3.85h0A137.48,137.48,0,0,1,655,214.69c.14-.23.54,0,.4.25a143.07,143.07,0,0,0-16.86,40.63c5.33-9.87,13.37-18,19.34-27.46,0-.05.12,0,.09,0-5.36,10.56-14.22,18.88-19.86,29.28q-1.47,6.36-2.38,12.82a143.57,143.57,0,0,0-1.28,17.81c3.24-6.06,6.61-11.86,9.26-18.27.07-.17.32-.06.26.11-2.26,6.67-5.29,13.84-9.54,19.52,0,4.22.1,8.44.35,12.65.66,11.24,2.58,22.33,3.47,33.54a.26.26,0,0,1-.52.05A258.77,258.77,0,0,1,633.31,301Z" style="fill:#263238"></path><path d="M645.25,214.33c0-.08.15,0,.12,0-2,5.68-3.21,11.43-4.69,17.26a.22.22,0,0,1-.43-.07C640.86,225.66,643,219.77,645.25,214.33Z" style="fill:#263238"></path><path d="M593.1,238.13a86,86,0,0,0,4.73,9.7c3.69,6.71,7.55,12.87,8.25,20.68.31,3.49.42,7,1.49,10.37A31,31,0,0,0,611.7,287c4,5.84,9,10.87,12.73,16.92a71.66,71.66,0,0,1,8.46,20.4c.09.39.71.29.61-.1,0,0,0-.06,0-.09a.15.15,0,0,0,0-.09c.59-16.76-.75-33.66-5.87-49.72a170.57,170.57,0,0,0-8.12-20.68c-2.74-5.82-6.15-11.42-11-15.77-3.12-2.81-9.89-8.14-14.33-5.32C592.11,233.89,592.26,236,593.1,238.13Z" style="fill:#4D1313"></path><path d="M610,276.13a138,138,0,0,0,9.75,14c1.62,2.12,3.27,4.22,4.89,6.34.76,1,1.62,2,2.32,3.08-.44-1.77-.87-3.53-1.32-5.29-2.16-8.47-4.24-17-7.47-25.16a168.92,168.92,0,0,0-11.64-22.82c-.11-.2.2-.34.32-.15,3.54,5.83,7.14,11.65,10.11,17.79a92.56,92.56,0,0,1,4.3,10.55,163.35,163.35,0,0,0-5.72-22.55c0-.06.07-.11.1-.05a76.9,76.9,0,0,1,5.93,23.46s0,0,0,0q1.1,3.25,2,6.59c2.64,9.38,5,18.85,7.11,28.36A101.46,101.46,0,0,0,629,291.69a.11.11,0,0,1,.22,0,59.2,59.2,0,0,1,1.62,19.66c.81,3.61,1.61,7.24,2.38,10.86,1.65,7.73,3.67,15.59,4.63,23.44,0,.2-.25.24-.31.05-1.15-4.23-1.84-8.61-2.78-12.9s-1.92-8.58-2.92-12.86c-1.45-6.24-3-12.46-4.53-18.68-1-2.28-3.05-4.3-4.55-6.21-1.65-2.1-3.3-4.19-4.91-6.32a94.3,94.3,0,0,1-8.06-12.49C609.76,276.11,609.9,276,610,276.13Z" style="fill:#263238"></path><path d="M609.24,269a88.29,88.29,0,0,1,9.53,15.15c0,.07-.07.14-.11.07-3.21-5-6.37-10.09-9.57-15.12C609,269,609.18,268.88,609.24,269Z" style="fill:#263238"></path><path d="M680.61,254c-2.18,3.74-4.66,8.24-3.72,12.73.59,2.84,2.67,5.15,3,8.05.85,6.41-5.54,10.64-10.15,13.66-11.51,7.56-27.3,14.29-29.4,29.72-.08.54-1,.41-1-.13a.36.36,0,0,1,0-.1s-.06-.05-.06-.09a59.15,59.15,0,0,1,.22-23.56c1.72-7.95,5.19-15.09,9.28-22.08,6.93-11.82,14.27-23.92,24.74-33,2.9-2.5,8.84-7,11.15-1.35S683.27,249.46,680.61,254Z" style="fill:#4D1313"></path><path d="M670.07,279.08c-7.63,8.26-19.77,12.89-26.34,22.15,3.9-14.19,10.34-26.94,20.24-38a.3.3,0,0,0-.42-.42A75,75,0,0,0,647,286.74a107.24,107.24,0,0,1,7.12-18.21c.11-.23-.2-.42-.33-.2a69.53,69.53,0,0,0-7.68,20.48c-8.66,20.95-9.46,45.53-7.64,67.62,0,.32.5.32.49,0-.49-17.41-.21-35.12,4-52.12l.27-1.06c7.15-10,19.23-14.58,27-24C670.28,279.12,670.15,279,670.07,279.08Z" style="fill:#263238"></path><path d="M671.84,272c-4,3.68-8,7.44-12,11.11,0,0,0,.11.06.08a58.61,58.61,0,0,0,12.15-10.95C672.21,272.06,672,271.83,671.84,272Z" style="fill:#263238"></path><path d="M672.47,256.06a125.68,125.68,0,0,1-12,16.49c-.06.06,0,.16.1.1a58.2,58.2,0,0,0,12.11-16.47A.13.13,0,0,0,672.47,256.06Z" style="fill:#263238"></path><polygon points="654.43 372.01 619.34 372.01 624.07 324.79 649.03 324.79 654.43 372.01" style="fill:#455a64"></polygon><polygon points="649.91 332.47 623.29 332.47 624.07 324.79 649.03 324.79 649.91 332.47" style="fill:#263238"></polygon><rect x="620.44" y="319.56" width="32.9" height="7.54" style="fill:#455a64"></rect></g><g id="freepik--character-2--inject-6"><path d="M498.64,430.44c-2.22,1.45-62.93,2.21-65,1.55s-.33-6.58,1.92-8.41,24.59-12.19,24.59-12.19l-1-9.08c10.59-.32,28-.93,38.05-1.28C498.2,415.5,499.07,430.17,498.64,430.44Z" style="fill:#ebebeb"></path><path d="M432.92,432.4c2.15.64,63.82.11,66.09-1.44.87-.58-1.27-22-1.27-22.12l-37.77.91,0,.67s-22.95,11.22-25.27,13.19S430.77,431.76,432.92,432.4Z" style="fill:#4D1313"></path><path d="M433.53,430c10.26-.6,51.69-2.07,61.88-1.89.08,0,.08.06,0,.07-10.15.82-51.6,1.95-61.88,2C433.32,430.18,433.31,430,433.53,430Z" style="fill:#263238"></path><path d="M456.71,410.65c4-.9,9-.44,12.16,2.33.12.11,0,.28-.16.24a56.38,56.38,0,0,0-12-2.06A.26.26,0,0,1,456.71,410.65Z" style="fill:#263238"></path><path d="M453.85,412.5c4-.89,9-.44,12.16,2.34.13.1,0,.28-.16.24a57,57,0,0,0-12-2.07A.26.26,0,0,1,453.85,412.5Z" style="fill:#263238"></path><path d="M451,414.36c4-.89,9-.44,12.17,2.33.12.11,0,.28-.17.25a56.83,56.83,0,0,0-12-2.07A.26.26,0,0,1,451,414.36Z" style="fill:#263238"></path><path d="M457.89,411.09h42.24s-5.73-98.87-5.39-100.6c.42-2.2,24.19-106.67,24.19-106.67h-35.8s-29.45,96.89-30.58,106.25C450.72,325.18,457.89,411.09,457.89,411.09Z" style="fill:#263238"></path><path d="M459.12,403.39c6.45-.13,4.6-.18,11.05-.24,3.16,0,23.91-.22,26.86.27a.07.07,0,0,1,0,.13c-2.95.49-23.7.31-26.86.28-6.45-.06-4.6-.11-11.05-.25A.1.1,0,0,1,459.12,403.39Z" style="fill:#37474f"></path><path d="M512.75,212.65c-3.34,11.9-6.25,23.93-9.28,35.91s-6,24-9.05,36c-1.48,5.9-3.09,11.77-4.37,17.71a70.21,70.21,0,0,0-1.29,17.95c.51,12.35,1.17,24.69,1.77,37s1.26,24.7,2,37c.09,1.55.19,3.09.28,4.63,0,.11.17.1.16,0q-1.38-37.06-3.24-74.1c-.3-6.19-.68-12.4.27-18.54.9-5.83,2.55-11.53,4-17.23q4.53-18,9-36c3.36-13.43,6.89-26.84,9.89-40.35A.09.09,0,0,0,512.75,212.65Z" style="fill:#37474f"></path><path d="M574.35,432c-2.07.67-53.07,0-55.3-1.41-.87-.54-1.29-9.13-1.5-19.54v-.33c0-.45-.26-2.43-.67-5.28l38,.63.67,5.22s14.54,10.4,16.82,12.26S576.41,431.31,574.35,432Z" style="fill:#dbdbdb"></path><path d="M576.25,433.31c-2.15.68-55.26.12-57.55-1.4-.88-.56-1.25-21.21-1.25-21.32l38.13,0,.17.62s16.22,11.38,18.56,13.32S578.39,432.65,576.25,433.31Z" style="fill:#4D1313"></path><path d="M575.6,430.94c-10.26-.46-45.36-1.43-55.55-1.1-.08,0-.08.06,0,.06,10.17.68,45.27,1.31,55.55,1.21C575.82,431.1,575.82,431,575.6,430.94Z" style="fill:#263238"></path><path d="M555.31,412.9c-3.79-1.61-8.75-2.08-12.39.06-.14.08,0,.28.12.27a56.66,56.66,0,0,1,12.14.17A.26.26,0,0,0,555.31,412.9Z" style="fill:#263238"></path><path d="M557.77,415.26c-3.78-1.62-8.74-2.09-12.38.05-.14.08,0,.28.11.27a56.74,56.74,0,0,1,12.15.17A.26.26,0,0,0,557.77,415.26Z" style="fill:#263238"></path><path d="M560.24,417.61c-3.78-1.62-8.75-2.09-12.39.05-.14.08,0,.28.12.27a56.64,56.64,0,0,1,12.14.17A.26.26,0,0,0,560.24,417.61Z" style="fill:#263238"></path><path d="M487.65,203.82s5.43,33.09,5.8,34.15c0,0,2,1,5.66,2.64L514.7,410.92l42.44.17L537.83,238.31s2.75-25.15-3.85-34.49Z" style="fill:#263238"></path><path d="M515.9,403.26c6.48-.1,4.62-.17,11.11-.2,3.17,0,24-.11,27,.39.06,0,.06.13,0,.14-3,.47-23.82.2-27,.16-6.48-.09-4.62-.14-11.1-.3A.1.1,0,0,1,515.9,403.26Z" style="fill:#37474f"></path><path d="M491.69,236.94a79.59,79.59,0,0,1,12.13,6.36.14.14,0,0,1-.13.25c-4.09-2-8.27-3.9-12.25-6.12A.28.28,0,0,1,491.69,236.94Z" style="fill:#37474f"></path><path d="M493.25,218c.67,4,1,8,1.48,12l.33,2.87a5.52,5.52,0,0,0,.68,2.52c.87,1.33,2.41,2,3.8,2.57a.14.14,0,0,1-.08.27,9.16,9.16,0,0,1-4-2.14c-1.27-1.34-1.23-3.38-1.43-5.11a109.75,109.75,0,0,1-.93-12.93A.09.09,0,0,1,493.25,218Z" style="fill:#37474f"></path><path d="M498.06,219.21c.14,2.85.46,5.7.7,8.54.12,1.41.21,2.82.3,4.22s.25,2.9.21,4.33a.09.09,0,0,1-.18,0c-.23-1.36-.26-2.77-.37-4.13s-.22-2.89-.3-4.33c-.16-2.88-.24-5.78-.5-8.66C497.91,219.11,498.06,219.11,498.06,219.21Z" style="fill:#37474f"></path><path d="M501.74,264.17c-.47-5-.9-10-1.47-15-.32-2.8-.57-5.62-1-8.4,0-.26-.46-.19-.45.07.11,5,.71,10,1.19,15s.9,10,1.56,15c.38,2.82.79,5.63,1.12,8.46,0,.1.17.1.16,0C502.42,274.26,502.21,269.21,501.74,264.17Z" style="fill:#37474f"></path><path d="M540,363.45q-2.18-16.74-4.31-33.48c-2.83-22.33-5.5-44.68-8.19-67-1.51-12.54-3.09-25.07-4.55-37.62,0-.08-.13-.08-.12,0,2.09,22.51,4.34,45,7,67.45s5.5,44.68,8.59,67c1.73,12.53,3.43,25.07,5.65,37.52a.09.09,0,0,0,.18,0C543,386,541.44,374.7,540,363.45Z" style="fill:#37474f"></path><path d="M489.67,149.05c.61,15.55-2.52,38.33-3.82,46.32-1.44,8.88-14.66,25.72-26,36.4-2.47,2.33-19.52-18.4-17.29-21.26,5.22-6.71,19.49-17.16,22.26-22.12,1.79-3.22,9.39-26.7,13.9-38C484.65,135.61,489.39,141.79,489.67,149.05Z" style="fill:#f7a9a0"></path><path d="M459.85,231.77c-2.55,2.07-16.58,12.27-20.59,13.84s-15.87,5.23-17.38,2.28,1.88-4.3,1.88-4.3-5.26.76-6.5-2.35,4.08-5,4.08-5-5.45.38-6.47-2.81,4.67-4.23,4.67-4.23-5,.58-4.71-2.4c.31-3.58,9.59-3.62,13.89-5.68,1-.47,19.1-10.88,19.1-10.88Z" style="fill:#f7a9a0"></path><path d="M419.05,229.27c6.82,0,9.8-1.24,15.46-4.86.11-.07.24.07.13.16-5.21,4.05-8.73,6.09-15.61,5C418.7,229.55,418.72,229.27,419.05,229.27Z" style="fill:#263238"></path><path d="M420.8,236.2c7.09-.66,10.33-1.94,16.54-5.3.08,0,.17.1.09.16-5.81,3.8-9.37,5.76-16.54,5.49C420.57,236.54,420.48,236.23,420.8,236.2Z" style="fill:#263238"></path><path d="M424.07,243.41c6.81-1.14,10.43-2.38,16-6.41.14-.1.29.09.16.19-5.31,4.67-9.81,6.26-16.13,6.42C423.69,243.63,423.64,243.48,424.07,243.41Z" style="fill:#263238"></path><polygon points="435.17 241.65 418.51 241.65 417.51 210.51 436.17 210.51 435.17 241.65" style="fill:#ebebeb"></polygon><polygon points="436.94 243.58 416.74 243.58 415.52 205.81 438.16 205.81 436.94 243.58" style="fill:#ebebeb;opacity:0.5"></polygon><path d="M451.53,208.06s-8.42-1.5-12.27-1.34-17.95,6-16.85,9.14c1.41,4,10.22,2.25,14.42.81,0,0,3.26,9.32,9.86,9.41S451.53,208.06,451.53,208.06Z" style="fill:#f7a9a0"></path><path d="M423.16,216.84c3.93,2.75,9.33.51,13.51-.58a.39.39,0,0,1,.51.39c1.63,3.82,5,8.73,9.32,9.62a.1.1,0,0,1,0,.2c-4.72-.34-8.46-4.88-10-9.18-4.27,1.19-9.77,3.2-13.36-.41C423.11,216.86,423.13,216.83,423.16,216.84Z" style="fill:#263238"></path><path d="M445.38,204.71l18.32,26s20-20.47,23.14-30.67,2.79-25.11,2.92-46-8.49-12.75-12.36-1.64c-3.52,10.14-12.89,34.84-13.33,35.68S445.38,204.71,445.38,204.71Z" style="fill:#ebebeb"></path><path d="M468.13,223.67c-2.57-4-5.39-7.76-8.19-11.57s-5.67-7.54-8.68-11.14c-.08-.09-.19,0-.13.11,2.57,4,5.31,7.84,8.12,11.64s5.58,7.6,8.61,11.21C468,224.11,468.26,223.87,468.13,223.67Z" style="fill:#263238"></path><path d="M479.44,214.48c1,.9,58.4-5.64,58.67-6,.71-1.1-20.86-61.19-35.49-70.37-3.15-2-14.13-.33-15.58.44-1.63.86-5.53,9.65-7,16.59C477.23,169,478.54,213.68,479.44,214.48Z" style="fill:#ebebeb"></path><path d="M534.45,197l-22.4,11.69-19.38-10.12L479,211.6c-.81-10-1.41-44.55,1-56.51a57.45,57.45,0,0,1,3.66-11.16s0,0,0,0c.59-1.17,1-1.94,1-1.94l4.56,21.55,12.84-25.84C513.51,144.66,527.82,178.94,534.45,197Z" style="fill:#263238"></path><path d="M491,181.1q-.31-3.89-.66-7.75c-.1-1.27-.21-2.54-.31-3.82s-.27-2.71-.4-4.06a0,0,0,0,0-.08,0c0,1.36,0,2.71,0,4.08s.08,2.54.13,3.81c.1,2.63.24,5.26.44,7.89.4,5.18.94,10.36,1.85,15.48a.09.09,0,0,0,.18,0C491.91,191.5,491.44,186.3,491,181.1Z" style="fill:#37474f"></path><path d="M496.68,191.1a1.38,1.38,0,1,1-1.38-1.38A1.37,1.37,0,0,1,496.68,191.1Z" style="fill:#37474f"></path><path d="M495.93,181.37a1.37,1.37,0,1,1-1.37-1.37A1.37,1.37,0,0,1,495.93,181.37Z" style="fill:#37474f"></path><path d="M495.19,171.64a1.38,1.38,0,1,1-1.37-1.37A1.37,1.37,0,0,1,495.19,171.64Z" style="fill:#37474f"></path><path d="M503.62,150.19c6.28,11.05,23.27,44.53,37.72,44.51,10.23,0,36.74-41.24,39.09-46.51,1.92-4.32-25.45-12.83-26.8-10-2.79,5.88-10.72,21.08-14.29,24.15-2.38,2-20.14-16-30.91-22.61C499.19,134.08,498.94,142,503.62,150.19Z" style="fill:#f7a9a0"></path><path d="M588.33,139.15C591,138,611.26,137.4,611.25,133s-25.83-3.17-25.83-3.17Z" style="fill:#f7a9a0"></path><path d="M551.49,146.81c-.64-7.38,4.58-16.31,7.66-17.18,2.14-.6,25.11.39,28.7.17s16.4.11,16.7,3.26c.41,4.45-13.84,4.63-16.22,6.09S578.15,152,578.15,152Z" style="fill:#f7a9a0"></path><path d="M604.88,133.12a3.46,3.46,0,0,0-1.46-2c-1.57-1.1-3.64-1.19-5.49-1.34a50.26,50.26,0,0,0-8.41-.07c-.07,0-.07.1,0,.1,2.1,0,4.2,0,6.29.23a25.93,25.93,0,0,1,5.69.87,4.64,4.64,0,0,1,2.19,1.31,1.79,1.79,0,0,1,.43,1.7c-.61,1.94-4.43,2.51-6.19,2.91-2.31.51-4.7,1-7,1.44-.1,0,0,.17.05.15,2.4-.47,4.94-.66,7.36-1.09,2-.36,4-.76,5.64-2.06A2.19,2.19,0,0,0,604.88,133.12Z" style="fill:#263238"></path><path d="M551.73,141.43l24.36,20.86s-22.11,32.8-35.42,33.36-31.33-32.39-36.91-43.51-5.85-20.48,9.44-9.69,24.68,19.07,25.6,18.91S551.73,141.43,551.73,141.43Z" style="fill:#ebebeb"></path><path d="M571,166.91c-3.39-3.32-7-6.4-10.53-9.5s-7.18-6.12-10.91-9c-.09-.07-.18.07-.1.14,3.38,3.32,6.9,6.49,10.47,9.59s7.11,6.19,10.85,9.05C571,167.36,571.13,167.07,571,166.91Z" style="fill:#263238"></path><rect x="545.62" y="125.83" width="74.68" height="4.12" transform="translate(1166.15 254.73) rotate(179.9)" style="fill:#c7c7c7"></rect><path d="M607.36,125.81H589.31c-.86,0,0-29.71,0-32.75s6.44-12.75,6.44-14.47v-17h5.16v17c0,1.72,6.45,11.44,6.45,14.47S608.21,125.81,607.36,125.81Z" style="fill:#4D1313"></path><rect x="588.93" y="106.14" width="18.8" height="13.63" style="fill:#455a64"></rect><rect x="596.32" y="59.43" width="4.03" height="2.12" style="fill:#455a64"></rect><path d="M576.3,79.44c0,19,0,24.81-5.12,24.81s-5.11-5.77-5.11-24.81Z" style="fill:#ebebeb"></path><rect x="570.46" y="100.52" width="1.44" height="23.43" style="fill:#ebebeb"></rect><polygon points="579.18 125.87 563.19 125.87 571.18 123.48 579.18 125.87" style="fill:#ebebeb"></polygon><path d="M560.31,79.44c0,19,0,24.81-5.12,24.81s-5.11-5.77-5.11-24.81Z" style="fill:#ebebeb"></path><rect x="554.47" y="100.52" width="1.44" height="23.43" style="fill:#ebebeb"></rect><polygon points="563.19 125.87 547.2 125.87 555.19 123.48 563.19 125.87" style="fill:#ebebeb"></polygon><path d="M489.81,147.23c2.31.11,8.11-3.91,9.79-8.26a68,68,0,0,0-1.52-6.71c-.49-2.14-1-4.55-1.29-6.77-.05-.46-13.51,5.24-13.51,5.24a35.72,35.72,0,0,1,2.48,8.37,4.8,4.8,0,0,1,0,.92v.16C485.74,142,486.68,147.09,489.81,147.23Z" style="fill:#f7a9a0"></path><path d="M485.79,140.18a8.22,8.22,0,0,0,1.44-.12c7.31-1.13,8.75-10.44,9-14.49-2.51.72-13,5.16-13,5.16a35.72,35.72,0,0,1,2.48,8.37,4.8,4.8,0,0,1,0,.92A.85.85,0,0,0,485.79,140.18Z" style="fill:#263238"></path><path d="M494.42,107.45c2.82,4.4,4.18,19,1.63,23.06-3.7,5.88-11.69,8.59-17.18,3.7-5.32-4.74-6.76-23.8-3.73-27.68C479.6,100.8,490.26,101,494.42,107.45Z" style="fill:#f7a9a0"></path><path d="M496.35,130.28h0" style="fill:none;stroke:#f4a69d;stroke-linecap:round;stroke-linejoin:round;stroke-width:0px"></path><path d="M483.63,119.3s.08,0,.08.08c.07,1,.31,2.1,1.23,2.34,0,0,0,.06,0,0C483.84,121.73,483.53,120.24,483.63,119.3Z" style="fill:#263238"></path><path d="M484.41,118.18c1.57-.27,2,2.89.55,3.14S483.09,118.41,484.41,118.18Z" style="fill:#263238"></path><path d="M478,119.81s-.07.06-.06.1c.17,1,.19,2.11-.65,2.56,0,0,0,.06,0,0C478.35,122.22,478.3,120.71,478,119.81Z" style="fill:#263238"></path><path d="M477,118.91c-1.59.1-1.28,3.27.19,3.18S478.3,118.83,477,118.91Z" style="fill:#263238"></path><path d="M485.39,116.42a11.41,11.41,0,0,1-1.31,0,2,2,0,0,1-1.33-.28.67.67,0,0,1-.15-.81,1.68,1.68,0,0,1,1.54-.69,2.49,2.49,0,0,1,1.68.57A.72.72,0,0,1,485.39,116.42Z" style="fill:#263238"></path><path d="M475.27,117.54a10.63,10.63,0,0,0,1.23-.45,2.09,2.09,0,0,0,1.17-.69.7.7,0,0,0-.11-.82,1.68,1.68,0,0,0-1.69-.15,2.45,2.45,0,0,0-1.41,1.07A.72.72,0,0,0,475.27,117.54Z" style="fill:#263238"></path><path d="M485.8,128c-.2.27-.39.61-.74.69a2.52,2.52,0,0,1-1.09-.1,0,0,0,0,0,0,.06,1.32,1.32,0,0,0,1.31.36,1.06,1.06,0,0,0,.65-1C485.91,128,485.83,128,485.8,128Z" style="fill:#263238"></path><path d="M484.37,125.25a3.33,3.33,0,0,1-2,1.78,3.69,3.69,0,0,1-1.19.22.91.91,0,0,1-.23,0h-.22c-.12,0-.19-.09-.23-.2h0a.33.33,0,0,1,0-.1h0v-.09c-.12-.75-.2-1.9-.2-1.9-.26.17-1.58,1-1.61.6a51,51,0,0,1-.1-10.26.1.1,0,0,1,.19,0c.37,3.15.18,6.34.5,9.51a5.65,5.65,0,0,1,1.51-.7c.11,0,.12,2.24.2,2.57a.1.1,0,0,1,0,0,4.72,4.72,0,0,0,3.31-1.55C484.33,125.1,484.42,125.16,484.37,125.25Z" style="fill:#263238"></path><path d="M481.59,126.93a4,4,0,0,0,1.79.93,1.8,1.8,0,0,0,1.09-.13c.74-.35.63-1.06.37-1.65a4.44,4.44,0,0,0-.52-.87A5.14,5.14,0,0,1,481.59,126.93Z" style="fill:#263238"></path><path d="M483.38,127.86a1.8,1.8,0,0,0,1.09-.13c.74-.35.63-1.06.37-1.65A1.88,1.88,0,0,0,483.38,127.86Z" style="fill:#ff9abb"></path><path d="M473.44,111.87c5.62,3.09,12.29-3.08,12.29-3.08a5.74,5.74,0,0,0,6.16,3s1.91,8.81,4.26,8.56c3.58-.37,3.48-12.63,2.12-14.91s-4.46-2.59-4.46-2.59A5.84,5.84,0,0,0,491,99.6c-2.63-1.63-10.82,1.72-10.82,1.72a7.83,7.83,0,0,0-2.45-2.7,2.22,2.22,0,0,0-3.15.6,5.23,5.23,0,0,1,1.07,2.12c.68,2.56-1.45,2.77-1.66.4a3.66,3.66,0,0,1,.59-2.52c-1.21-1.44-3-1.77-3.93-.84C468.93,100.07,468.77,109.3,473.44,111.87Z" style="fill:#263238"></path><path d="M494.63,119.61s2-5.34,4.33-4.74,1.66,7.75-.51,9.27a2.53,2.53,0,0,1-3.62-.46Z" style="fill:#f7a9a0"></path><path d="M498.71,116.91s.06,0,0,.07a6.37,6.37,0,0,0-2.19,4.69,1.39,1.39,0,0,1,1.92-.89.05.05,0,0,1,0,.1,1.55,1.55,0,0,0-1.52,1,7.37,7.37,0,0,0-.45,1.54c0,.17-.33.16-.32,0v0C495.57,121.17,496.46,117.73,498.71,116.91Z" style="fill:#263238"></path><path d="M485.81,139.26l4.61,7.54,8.33-11.93,3.4,2.81s-7.09,17.92-7.28,17.2l-4.51-6.42-4,5.66-1.66-12.24Z" style="fill:#ebebeb"></path><path d="M485.2,148.12c-.21-2-.47-4.08-.58-6.11,0-.08.1-.13.13,0,.73,1.88,1.48,9.65,1.8,11.49v0c.17-.25,3.75-5,3.8-5,.91,1,4.21,5.65,4.46,6.09,1.12-2.85,5.5-13.25,6.93-16a.07.07,0,0,1,.13,0c-.91,3-6.67,16.94-6.8,16.92a79,79,0,0,1-4.73-6.78c-.57,1-4.1,6.31-4.17,6A64.6,64.6,0,0,1,485.2,148.12Z" style="fill:#263238"></path><path d="M491.81,150.48a2.11,2.11,0,1,1-2.18-2A2.11,2.11,0,0,1,491.81,150.48Z" style="fill:#4D1313"></path><path d="M490.51,149.54s5.64-7.38,6.68-4.65a4.4,4.4,0,0,1-.52,4.45s1.87,3,.57,3.69-6.5-.95-6.67-1.72A6.52,6.52,0,0,1,490.51,149.54Z" style="fill:#4D1313"></path><path d="M489.23,149.55s-4.24-6.6-4.79-4a5.32,5.32,0,0,0,.59,4.13s-1.11,2.89-.18,3.48,4.36-1.23,4.43-2A8.07,8.07,0,0,0,489.23,149.55Z" style="fill:#4D1313"></path></g><g id="freepik--Chairs--inject-6"><polygon points="270.4 330.38 272.92 345.45 289.94 437.39 292.69 437.39 280.31 345.45 278.48 330.38 270.4 330.38" style="fill:#dbdbdb"></polygon><polygon points="278.48 330.38 270.4 330.38 272.92 345.45 280.31 345.45 278.48 330.38" style="fill:#a6a6a6"></polygon><polygon points="216.94 437.39 219.69 437.39 236.71 345.45 239.23 330.38 231.15 330.38 229.32 345.45 216.94 437.39" style="fill:#dbdbdb"></polygon><polygon points="231.15 330.38 229.32 345.45 236.71 345.45 239.23 330.38 231.15 330.38" style="fill:#a6a6a6"></polygon><polygon points="165.88 437.39 168.63 437.39 185.65 345.45 188.16 330.38 180.09 330.38 178.26 345.45 165.88 437.39" style="fill:#dbdbdb"></polygon><polygon points="178.26 345.45 185.65 345.45 188.16 330.38 180.09 330.38 178.26 345.45" style="fill:#a6a6a6"></polygon><polygon points="170.23 337.46 294.98 337.46 294.98 324.32 248.28 324.32 232.59 233.01 174.99 233.01 170.23 337.46" style="fill:#dbdbdb"></polygon><polygon points="170.23 337.46 177.03 337.46 181.47 233.01 174.99 233.01 170.23 337.46" style="fill:#c7c7c7"></polygon><polygon points="514.44 330.38 511.93 345.45 494.9 437.39 492.16 437.39 504.54 345.45 506.37 330.38 514.44 330.38" style="fill:#dbdbdb"></polygon><polygon points="506.37 330.38 514.44 330.38 511.93 345.45 504.54 345.45 506.37 330.38" style="fill:#a6a6a6"></polygon><polygon points="567.9 437.39 565.16 437.39 548.13 345.45 545.62 330.38 553.69 330.38 555.52 345.45 567.9 437.39" style="fill:#dbdbdb"></polygon><polygon points="553.69 330.38 555.52 345.45 548.13 345.45 545.62 330.38 553.69 330.38" style="fill:#a6a6a6"></polygon><polygon points="618.96 437.39 616.22 437.39 599.2 345.45 596.68 330.38 604.75 330.38 606.58 345.45 618.96 437.39" style="fill:#dbdbdb"></polygon><polygon points="606.58 345.45 599.2 345.45 596.68 330.38 604.75 330.38 606.58 345.45" style="fill:#a6a6a6"></polygon><polygon points="614.61 337.46 489.87 337.46 489.87 324.32 536.56 324.32 552.26 233.01 609.86 233.01 614.61 337.46" style="fill:#dbdbdb"></polygon><polygon points="614.61 337.46 607.81 337.46 603.38 233.01 609.86 233.01 614.61 337.46" style="fill:#c7c7c7"></polygon></g><g id="freepik--Table--inject-6"><polygon points="487.73 269.45 487.42 293.42 484.08 443.43 480.32 443.43 476.97 293.42 476.67 269.45 487.73 269.45" style="fill:#455a64"></polygon><polygon points="487.73 269.45 487.42 293.42 476.97 293.42 476.67 269.45 487.73 269.45" style="fill:#37474f"></polygon><polygon points="275.03 269.45 274.72 293.42 271.38 443.43 267.62 443.43 264.27 293.42 263.97 269.45 275.03 269.45" style="fill:#455a64"></polygon><polygon points="263.97 269.45 275.03 269.45 274.72 293.42 264.27 293.42 263.97 269.45" style="fill:#37474f"></polygon><rect x="240.24" y="259.53" width="272.5" height="15.57" style="fill:#455a64"></rect><polygon points="268.33 258.41 484.65 258.41 376.49 300.62 268.33 258.41" style="fill:#ebebeb"></polygon><path d="M366.88,207.45c8.43,8.25,9.84,21,8.07,32.19-.05.26-.44.19-.44,0,0-2.54.08-5.07.07-7.58-.05-.12-.09-.22-.13-.34a17.05,17.05,0,0,1-5.48-5.88c-1.4-2.77-2-5.89-3-8.78-.1-.28.2-.2.39-.06,5.13,3.78,6.76,7.85,8.23,13.29a44.39,44.39,0,0,0-.89-8.47,28.83,28.83,0,0,0-7-14.1C366.52,207.53,366.73,207.3,366.88,207.45Z" style="fill:#263238"></path><path d="M365.3,208.41c-1.45.05-2.36,2.37-3.49,3a1.09,1.09,0,0,1-1.6-.25c-1.12-1.56.41-3.49,1.86-4.57a16.3,16.3,0,0,1-3,1.39,1.05,1.05,0,0,1-1.36-.82c-.49-2.13,2.18-3.07,4-3.12-.88-.62-3.43-2.3-2.08-3.12s4.36,1.57,5.34,2.36c1.43,1.16,3.14,2.9,3.2,4.72C368.27,210.16,366.41,208.86,365.3,208.41Z" style="fill:#4D1313"></path><path d="M365.3,208.41c-1.45.05-2.36,2.37-3.49,3a1.09,1.09,0,0,1-1.6-.25c-1.12-1.56.41-3.49,1.86-4.57a16.3,16.3,0,0,1-3,1.39,1.05,1.05,0,0,1-1.36-.82c-.49-2.13,2.18-3.07,4-3.12-.88-.62-3.43-2.3-2.08-3.12s4.36,1.57,5.34,2.36c1.43,1.16,3.14,2.9,3.2,4.72C368.27,210.16,366.41,208.86,365.3,208.41Z" style="opacity:0.1"></path><path d="M365.72,208.77c-1.86-.84-5.42.37-5.72-.33-.61-1.43,2.23-2.41,3.77-2.6-1.42-.38-4.13-1-4-2.36.11-1.66,4.16-.23,6.22,1.34,2.58,2,2.56,3.9,2.14,4.28C367.49,209.63,366,208.91,365.72,208.77Z" style="fill:#4D1313"></path><path d="M386.07,206.63c-8.73,7.93-10.63,20.63-9.28,31.87,0,.25.43.2.44,0,.1-2.54.11-5.07.22-7.58l.14-.33a17,17,0,0,0,5.7-5.67c1.51-2.71,2.18-5.81,3.37-8.66.11-.27-.19-.2-.39-.07-5.27,3.58-7,7.59-8.73,13a45.93,45.93,0,0,1,1.21-8.43,28.89,28.89,0,0,1,7.54-13.83A.16.16,0,0,0,386.07,206.63Z" style="fill:#263238"></path><path d="M387.62,207.65c1.45.11,2.27,2.46,3.37,3.18a1.09,1.09,0,0,0,1.61-.19c1.18-1.52-.28-3.51-1.69-4.64a17.06,17.06,0,0,0,2.95,1.5,1.06,1.06,0,0,0,1.39-.76c.57-2.11-2.07-3.16-3.9-3.28.92-.58,3.53-2.16,2.21-3s-4.42,1.41-5.43,2.16c-1.47,1.11-3.25,2.78-3.38,4.59C384.58,209.29,386.49,208.06,387.62,207.65Z" style="fill:#4D1313"></path><path d="M387.62,207.65c1.45.11,2.27,2.46,3.37,3.18a1.09,1.09,0,0,0,1.61-.19c1.18-1.52-.28-3.51-1.69-4.64a17.06,17.06,0,0,0,2.95,1.5,1.06,1.06,0,0,0,1.39-.76c.57-2.11-2.07-3.16-3.9-3.28.92-.58,3.53-2.16,2.21-3s-4.42,1.41-5.43,2.16c-1.47,1.11-3.25,2.78-3.38,4.59C384.58,209.29,386.49,208.06,387.62,207.65Z" style="opacity:0.1"></path><path d="M387.19,208c1.88-.77,5.39.58,5.72-.11.67-1.4-2.14-2.49-3.66-2.74,1.42-.33,4.16-.83,4.13-2.2,0-1.67-4.15-.39-6.26,1.1-2.66,1.89-2.72,3.8-2.3,4.2S386.88,208.12,387.19,208Z" style="fill:#4D1313"></path><path d="M377.14,227.56a85,85,0,0,1-2.71,12.53.31.31,0,0,1-.61-.12c.57-3.86,1.62-7.65,2.19-11.52a57.63,57.63,0,0,0,.67-11.81c-.37-6.51-2.13-13.43-6.38-18.52-.09-.12.11-.29.2-.18,8.5,9.91,7.15,22.06,7.14,23.15,1.21-4.1,2.45-8.81,7-13,.19-.18.35-.1.32.21-.82,7.61-2.93,11.58-7.35,15.65C377.49,225.18,377.33,226.38,377.14,227.56Z" style="fill:#263238"></path><path d="M370.23,199.26c-1.53-.68-3.64,1.27-5.16,1.4a1.26,1.26,0,0,1-1.53-1.07c-.37-2.18,2.19-3.41,4.23-3.8-1.28-.08-2.55.26-3.81-.08a1.21,1.21,0,0,1-1-1.52c.56-2.46,3.81-2.1,5.74-1.22-.61-1.09-2.41-4.12-.59-4.29s3.73,3.82,4.35,5.13c.9,1.93,1.8,4.6,1,6.52C372.43,202.57,371.16,200.28,370.23,199.26Z" style="fill:#4D1313"></path><path d="M370.23,199.26c-1.53-.68-3.64,1.27-5.16,1.4a1.26,1.26,0,0,1-1.53-1.07c-.37-2.18,2.19-3.41,4.23-3.8-1.28-.08-2.55.26-3.81-.08a1.21,1.21,0,0,1-1-1.52c.56-2.46,3.81-2.1,5.74-1.22-.61-1.09-2.41-4.12-.59-4.29s3.73,3.82,4.35,5.13c.9,1.93,1.8,4.6,1,6.52C372.43,202.57,371.16,200.28,370.23,199.26Z" style="opacity:0.1"></path><path d="M370.48,199.84c-1.5-1.81-5.8-2.34-5.76-3.22.08-1.79,3.52-1.38,5.21-.8-1.27-1.11-3.78-3.11-3-4.48.94-1.68,4.43,1.85,5.76,4.52,1.69,3.35.71,5.33.07,5.51C371.89,201.62,370.73,200.14,370.48,199.84Z" style="fill:#4D1313"></path><path d="M382.73,229.85l3.75,28.64H363.67c.47-2.53,4.72-28.67,4.72-28.67Z" style="fill:#4D1313"></path></g><g id="freepik--character-1--inject-6"><path d="M264.36,448.69c-2.08.69-61.51.52-63.77-.92-.86-.54-1.34-9.2-1.62-19.68-.07-2.26-.11-4.59-.15-7,0-2.81-.08-5.66-.1-8.42-.07-12.41.1-23.34.1-23.34h38.69l0,23.34v8.42l-.2,7s22.72,10.25,25,12.1S266.43,448,264.36,448.69Z" style="fill:#d3766a"></path><path d="M264.36,448.69c-2.09.69-61.51.52-63.78-.92-.7-.45-1.16-6.46-1.45-14.47,17,2.51,48.94,6.32,52.15,5,2.64-1-1.34-3.94-4.86-6.06,6.59,3.06,14.57,6.86,15.89,7.91C264.62,442,266.43,448,264.36,448.69Z" style="fill:#263238"></path><path d="M185.92,221.73s10.45,106.18,10.7,107.49c0,.17,2.06,79.35,2.06,79.35l38.81.15s-.13-69.83-1.73-85.17c-2-19.56-14.5-101.82-14.5-101.82Z" style="fill:#d3766a"></path><path d="M216,221.72l-18.69,132.4c-.37-13.45-.67-24.3-.7-24.88v0c-.24-1.31-10.7-107.5-10.7-107.5Z" style="fill:#263238"></path><path d="M206.41,452.92c-2.12.54-61.38-3.87-63.54-5.47-.82-.59-.67-9.27-.21-19.73.09-2.27,5.43-38.64,5.43-38.64l37.23,2.81-4.44,38.55s21.93,11.84,24.1,13.84S208.53,452.38,206.41,452.92Z" style="fill:#d3766a"></path><path d="M206.41,452.92c-2.12.53-61.38-3.87-63.54-5.47-.73-.53-.69-7.45-.36-16.34,15.05,4.29,51.24,13.24,54.85,12.29,2.24-.59.25-2.93-2.32-5.14,4.73,2.67,9,5.19,9.94,6C207.14,446.28,208.53,452.38,206.41,452.92Z" style="fill:#263238"></path><path d="M221.26,221.73s-1.37,13.83-7,21.53c-1.7,2.3-7.11,4.21-9.51,6,0,0-7.29,71.94-9.27,81.85-1,5.12-12.76,81.63-12.76,81.63l-37.62-2.8s11.21-74.49,12.16-80,6-70.42,5.75-72c-2.56-19.1,6.59-36.09,6.59-36.09Z" style="fill:#d3766a"></path><path d="M169.57,221.73h52.52s13.71,94.61,14.33,100.14,1.07,15,1.07,15a102.82,102.82,0,0,1-34.7,6.44c-22,.31-47.86-8.44-47.86-8.44s1.54-5.52,1.84-7.21,6-69.67,6-69.67S161.48,235.77,169.57,221.73Z" style="fill:#263238"></path><path d="M169.57,221.73h54.5s9.13,60.43,9.51,61.46-2.14,16.53-23.25,17.35-51.25-12-51.25-12l3.45-30.23S159.49,238.68,169.57,221.73Z" style="fill:#4D1313"></path><path d="M217.14,163.67c16.27,14.25,37.7,45.15,34.63,52-3.43,7.58-26.1-12.39-26.11-13.66,0-.95-8.87-20-15.55-33.89S213.11,160.15,217.14,163.67Z" style="fill:#d3766a"></path><path d="M225.52,202c-.8-2-12.8-27.19-16.28-35.16s-1-10.69,7.8-3.81,28.69,30.6,33.79,43.59c4.91,12.5-1.68,13-10.8,7.73C232.55,210.05,225.52,202,225.52,202Z" style="fill:#ebebeb"></path><path d="M224.23,203.76l-.16,18h-54.5s10.77-48.28,25-61.1c7.12-6.41,14.66-5.18,19,.18,1.11,1.36,13.9,22,14.75,29.55C229.11,197,224.23,203.76,224.23,203.76Z" style="fill:#ebebeb"></path><path d="M227.12,185.73c-.61-1.73-1.32-3.43-2.07-5.11q-.63-2.48-1.18-5c0-.05-.08,0-.07,0a27.92,27.92,0,0,0,.67,3.65,65.52,65.52,0,0,0-3.38-6.36c-.05-.09-.17,0-.13.08a81.67,81.67,0,0,1,5.19,11.81,20.74,20.74,0,0,1,1.34,6.26,21.89,21.89,0,0,1-.84,6.18c-.3,1.15-.68,2.28-1.09,3.39s-.84,2.38-1.34,3.51c0,.09.09.16.13.08.47-1,1-2,1.5-3s.83-1.9,1.2-2.86a18.82,18.82,0,0,0,1.32-6.23A18.26,18.26,0,0,0,227.12,185.73Z" style="fill:#263238"></path><path d="M214.32,177.93a3.25,3.25,0,0,0-.93-1.84,2.6,2.6,0,0,0-1.45-3.74c-.24-.08-.23,0-.15-.29a2.13,2.13,0,0,0,.12-.62,2,2,0,0,0-.33-1.15,1.72,1.72,0,0,0-2-.66.1.1,0,0,0,0,.2c.89.09,1.77.67,1.58,1.69-.08.45-.45,1,.05,1.37a4.49,4.49,0,0,0,.8.29,1.88,1.88,0,0,1,.75.65,2,2,0,0,1,0,2.17.32.32,0,0,0,0,.38,2.75,2.75,0,0,1,1,1.89c.11.69,0,1.41.16,2.09,0,.13.19.09.23,0A5.08,5.08,0,0,0,214.32,177.93Z" style="fill:#263238"></path><path d="M216.26,178.29a3.26,3.26,0,0,0-.6-2,2.61,2.61,0,0,0-.81-3.94c-.22-.11-.22-.08-.11-.3a2.19,2.19,0,0,0,.23-.6,2,2,0,0,0-.14-1.19,1.7,1.7,0,0,0-1.89-1,.1.1,0,0,0,0,.2c.86.23,1.64,1,1.28,1.92-.16.44-.61.93-.18,1.37a4.88,4.88,0,0,0,.74.42,1.9,1.9,0,0,1,.24,2.9.32.32,0,0,0,0,.38,2.8,2.8,0,0,1,.7,2c0,.7-.21,1.4-.19,2.09,0,.12.18.12.23,0A5.11,5.11,0,0,0,216.26,178.29Z" style="fill:#263238"></path><path d="M212.15,178.78a3.27,3.27,0,0,0-1-1.8,2.61,2.61,0,0,0-1.6-3.69c-.24-.07-.23,0-.16-.28a2.24,2.24,0,0,0,.1-.63,2,2,0,0,0-.38-1.13,1.71,1.71,0,0,0-2.05-.58.1.1,0,0,0,0,.2c.89,0,1.8.6,1.65,1.62-.07.46-.41,1,.11,1.38a5.31,5.31,0,0,0,.8.25,1.89,1.89,0,0,1,.78.62,2,2,0,0,1,.06,2.17.34.34,0,0,0,.07.38,2.76,2.76,0,0,1,1.11,1.85c.14.68.09,1.41.25,2.08,0,.12.19.08.23,0A5.21,5.21,0,0,0,212.15,178.78Z" style="fill:#263238"></path><path d="M251.69,215.63c-3.06,5.13-11.52,9.51-34.34,15.74-3.16.86-16-22.55-12.66-23.65,4.18-1.37,20.73-5.82,22-6C237.23,200.28,253.76,212.15,251.69,215.63Z" style="fill:#d3766a"></path><path d="M175.59,222a4.07,4.07,0,0,0,3,3.56,6.06,6.06,0,0,0-.64,4.06c.58,2.42,4.64,2.57,4.64,2.57a7.47,7.47,0,0,0,0,4.39c.79,2.26,4.86,3,4.86,3a6.57,6.57,0,0,0,2.44,3.86c3.43,2.41,9.34-.09,13.1-1.65S216,232.3,217.9,231l-9.76-24.26s-18.88,2.15-23,4.61C181.58,213.38,175.42,218.83,175.59,222Z" style="fill:#d3766a"></path><path d="M178.59,225.11c3.21-3.09,7.16-5.07,11-7.27.08-.05.16.09.07.14-3.83,2.14-7.19,5-10.93,7.3C178.62,225.35,178.51,225.2,178.59,225.11Z" style="fill:#263238"></path><path d="M182.53,231.85a11.62,11.62,0,0,1,2.6-1.57c1-.48,1.93-1,2.9-1.41,2-.92,3.93-1.79,5.93-2.6.09,0,.16.09.07.13-1.94.92-3.87,1.86-5.78,2.86-.95.5-1.9,1-2.84,1.52a14.1,14.1,0,0,1-2.74,1.32A.15.15,0,0,1,182.53,231.85Z" style="fill:#263238"></path><path d="M187.52,239.53a8.26,8.26,0,0,1,2.42-1.28l2.69-1.21c1.79-.82,3.58-1.63,5.33-2.51.09-.05.17.09.08.13-1.78.9-3.55,1.83-5.34,2.72l-2.64,1.29a7.69,7.69,0,0,1-2.5,1C187.51,239.63,187.49,239.56,187.52,239.53Z" style="fill:#263238"></path><path d="M207.19,206.48,230,229.33s19.35-8,22-13.45c1.73-3.61-14.75-16.45-26.29-14Z" style="fill:#ebebeb"></path><path d="M239.85,204.59a20.3,20.3,0,0,0-14.2-2.67c-.06,0-.05.11,0,.1,5.08-.51,12.14,1.64,14.15,2.66C239.86,204.71,239.89,204.62,239.85,204.59Z" style="fill:#263238"></path><path d="M234.4,223.39c-2.28-2.45-4.7-4.77-7.12-7.09s-4.85-4.65-7.33-6.91c-1.41-1.27-2.8-2.56-4.25-3.78a0,0,0,1,0-.06.06c2.28,2.44,4.69,4.78,7.09,7.11s4.85,4.65,7.3,6.94c1.39,1.29,2.8,2.56,4.25,3.78C234.35,223.57,234.47,223.46,234.4,223.39Z" style="fill:#263238"></path><path d="M198.3,208.06a9,9,0,0,1,1.72-1.91c1.37-1.3,21.1-5.2,24.55-4.87s14.67,10.11,16.82,16.66,2.76,31.72,2.25,31.92S212,255.38,212,255.38s.18-21.74,0-27.8-11-20-11.59-19.85A14.62,14.62,0,0,1,198.3,208.06Z" style="fill:#fff"></path><path d="M243.81,246.06,212,250.93c0-.43,0-.89,0-1.38l31.75-4.87C243.8,245.16,243.81,245.63,243.81,246.06Z" style="fill:#ebebeb"></path><path d="M243.76,242.63l-31.71,4.88c0-.46,0-.92,0-1.4l31.66-4.86C243.73,241.73,243.74,242.19,243.76,242.63Z" style="fill:#ebebeb"></path><path d="M197.54,171.91c-6.27,11.06-23.2,44.57-37.65,44.57-10.23,0-36.8-41.17-39.17-46.44-1.93-4.31,25.43-12.87,26.78-10,2.8,5.88,10.76,21.06,14.34,24.12,2.38,2,20.11-16,30.87-22.66C201.93,155.79,202.2,163.67,197.54,171.91Z" style="fill:#d3766a"></path><path d="M112.81,161c-2.63-1.1-22.93-1.71-22.93-6.11s25.82-3.21,25.82-3.21Z" style="fill:#d3766a"></path><path d="M149.66,168.62c.63-7.38-4.61-16.31-7.69-17.17-2.14-.6-25.12.43-28.71.22s-16.39.14-16.68,3.29c-.41,4.45,13.85,4.61,16.23,6.06S123,173.89,123,173.89Z" style="fill:#d3766a"></path><path d="M96.47,155a3.44,3.44,0,0,1,1.47-2c1.56-1.1,3.63-1.19,5.48-1.34a50.37,50.37,0,0,1,8.42-.07.05.05,0,0,1,0,.1c-2.1,0-4.19.05-6.29.23a25.93,25.93,0,0,0-5.69.87,4.64,4.64,0,0,0-2.19,1.31,1.79,1.79,0,0,0-.43,1.7c.61,1.94,4.43,2.51,6.19,2.9,2.31.52,4.7,1,7,1.45.1,0,0,.17,0,.15-2.4-.47-4.94-.66-7.36-1.09-2-.36-4-.76-5.64-2.06A2.21,2.21,0,0,1,96.47,155Z" style="fill:#263238"></path><path d="M149.41,163.24l-24.32,20.9s22.16,32.76,35.48,33.3S191.84,185,197.4,173.86s5.82-20.49-9.46-9.67-24.64,19.11-25.56,18.95S149.41,163.24,149.41,163.24Z" style="fill:#ebebeb"></path><path d="M194.41,179.73a.09.09,0,0,0-.16-.09c-2.73,4.24-5.36,8.55-8.13,12.75s-5.75,8.38-8.76,12.48c-1.67,2.28-3.34,4.6-5.14,6.79-.07.09.06.22.14.13,3.35-3.8,6.64-7.59,9.65-11.69,2.37-3.25,4.65-6.57,6.75-10a51.56,51.56,0,0,0,4.27-5c.05-.07,0-.17-.1-.1-1.2,1.3-2.35,2.64-3.52,4,.32-.54.65-1.07,1-1.61C191.8,184.89,193.2,182.36,194.41,179.73Z" style="fill:#263238"></path><path d="M151,169.75c-3.7,3-7.19,6.13-10.71,9.3s-6.93,6.39-10.22,9.75c-.08.08,0,.18.12.11,3.7-2.95,7.28-6.06,10.78-9.23s7-6.31,10.3-9.68C151.42,169.83,151.16,169.6,151,169.75Z" style="fill:#263238"></path><rect x="125.11" y="107.16" width="2.46" height="4.01" style="fill:#c7c7c7"></rect><rect x="80.81" y="147.7" width="74.68" height="4.12" style="fill:#c7c7c7"></rect><path d="M152.32,147.7H83.73s14-35,41.36-37.45S152.32,147.7,152.32,147.7Z" style="fill:#c7c7c7"></path><path d="M152.32,147.7H83.73s.53-1.31,1.56-3.45l66.08-6.66A65.64,65.64,0,0,1,152.32,147.7Z" style="fill:#a6a6a6"></path><ellipse cx="109.51" cy="124.37" rx="12.58" ry="6.29" transform="translate(-55.22 106.38) rotate(-42.4)" style="fill:#dbdbdb"></ellipse><path d="M200,158.72c.34.93,5.63,6.52,9.94,5.78,1.41-.24.42-8,.42-8l.06-.59.79-8.21L201,142.88l-1.46-.63s-.07,2.26-.13,5.08v.4c0,.16,0,.31,0,.46,0,.42,0,.85,0,1.28s0,.64,0,1v1A53.1,53.1,0,0,0,200,158.72Z" style="fill:#d3766a"></path><path d="M199.45,147.33A16.55,16.55,0,0,0,210.38,156l.79-8.21L201,142.88l-1.46-.63S199.51,144.51,199.45,147.33Z" style="fill:#263238"></path><path d="M221.69,135.69c1.07,14.44-7.46,16.71-10.58,16.94-2.83.21-12.48.55-15-13.71s3.82-19.31,10.26-20.12S220.62,121.25,221.69,135.69Z" style="fill:#d3766a"></path><path d="M219.26,131.86a8.39,8.39,0,0,1-1-.13,1.66,1.66,0,0,1-1-.33.51.51,0,0,1,0-.63,1.27,1.27,0,0,1,1.23-.39,1.91,1.91,0,0,1,1.23.57A.55.55,0,0,1,219.26,131.86Z" style="fill:#263238"></path><path d="M209.78,132.62a7.58,7.58,0,0,0,1-.28,1.63,1.63,0,0,0,.93-.47.51.51,0,0,0,0-.62,1.28,1.28,0,0,0-1.28-.21,1.9,1.9,0,0,0-1.12.75A.55.55,0,0,0,209.78,132.62Z" style="fill:#263238"></path><path d="M212,136.12s-.08.06-.07.1c.13,1,.11,2.12-.75,2.53,0,0,0,.06,0,.05C212.24,138.55,212.25,137,212,136.12Z" style="fill:#263238"></path><path d="M211,135.18c-1.59,0-1.4,3.22.07,3.18S212.33,135.15,211,135.18Z" style="fill:#263238"></path><path d="M210.39,135.39c-.27.2-.52.53-.86.58s-.69-.25-1-.56c0,0-.05,0-.05,0,0,.61.3,1.22,1,1.27s1-.51,1.11-1.13C210.6,135.47,210.49,135.31,210.39,135.39Z" style="fill:#263238"></path><path d="M217.63,135.6s.07,0,.08.09c0,1,.2,2.11,1.11,2.39,0,0,0,.06,0,0C217.72,138,217.48,136.54,217.63,135.6Z" style="fill:#263238"></path><path d="M218.45,134.53c1.58-.2,1.87,3,.4,3.15S217.13,134.7,218.45,134.53Z" style="fill:#263238"></path><path d="M219.13,134.68c.27.14.54.43.84.42s.58-.38.77-.73c0,0,0,0,0,0,.07.6-.07,1.25-.64,1.42s-1-.33-1.16-.92C219,134.8,219,134.62,219.13,134.68Z" style="fill:#263238"></path><path d="M212.35,144c.24.23.48.55.84.57a2.51,2.51,0,0,0,1.06-.26,0,0,0,0,1,0,0,1.32,1.32,0,0,1-1.25.55,1,1,0,0,1-.78-.86C212.24,144,212.32,143.93,212.35,144Z" style="fill:#263238"></path><path d="M216.21,140.12s.31,1.45.36,2.15c0,.06-.16.1-.4.13h0a3.32,3.32,0,0,1-3.29-1c-.05-.06,0-.14.1-.1A4.94,4.94,0,0,0,216,142c0-.2-.61-2.47-.5-2.49a6.33,6.33,0,0,1,1.59.24c-.55-3-1.58-6-2.09-9,0-.11.14-.16.18-.06a49.56,49.56,0,0,1,2.67,9.63C218,140.64,216.5,140.22,216.21,140.12Z" style="fill:#263238"></path><path d="M216.13,141.94a4,4,0,0,1-1.37,1.51,1.83,1.83,0,0,1-1.07.26c-.82-.06-1-.78-.93-1.42a4.08,4.08,0,0,1,.18-1A5.27,5.27,0,0,0,216.13,141.94Z" style="fill:#263238"></path><path d="M214.76,143.45a1.83,1.83,0,0,1-1.07.26c-.82-.06-1-.78-.93-1.42A1.87,1.87,0,0,1,214.76,143.45Z" style="fill:#ff9abb"></path><path d="M198.28,123.89c2-2.1,5.2-15.43-6.48-19.59-11.51-4.09-22,11.69-12.52,20.38C185.62,130.51,194,128.34,198.28,123.89Z" style="fill:#263238"></path><path d="M197.21,138.8c1.53-.26,5.08-4.91,4.42-12.35,0,0,.13,6.72-.26,7.75s2-2.62,1.53-8.63a24.34,24.34,0,0,0,6.48,2.53c2.91.5,4.64.28,4.82.06s-4.12-1.1-5.38-2.27c0,0,7.89,2.69,11.39,2.59.4,0,0-8.31-5.73-11.24s-13.82,1.75-15.87,4.2c0,0-2.64.67-5.13,4.94S195.57,139.07,197.21,138.8Z" style="fill:#263238"></path><path d="M198.46,139.86s-3.11-4.56-5.17-3.46.23,7.69,2.62,8.61a2.45,2.45,0,0,0,3.3-1.27Z" style="fill:#d3766a"></path><path d="M194,138.27s0,.06,0,.07a6.17,6.17,0,0,1,3.15,3.91,1.35,1.35,0,0,0-2-.39s0,.1,0,.09a1.52,1.52,0,0,1,1.65.54,7.57,7.57,0,0,1,.77,1.36c.08.15.35.07.3-.1v0C197.94,141.55,196.3,138.52,194,138.27Z" style="fill:#263238"></path><path d="M210.47,156.57l-1.94,6.78-8.95-7.4-2,2.88s9.27,12.27,9.26,11.68l2.11-5.89,4.28,3.5-1.33-9.77Z" style="fill:#ebebeb"></path><path d="M212.82,163.25c-.27-1.6-.5-3.23-.85-4.82a.06.06,0,0,0-.11,0c-.16,1.59.91,7.73,1.06,9.21h0c-.18-.16-3.94-3.07-4-3-.49.95-2,5.24-2.14,5.63-1.46-1.95-7-9-8.73-10.83-.05,0-.13,0-.09.06,1.33,2.09,8.74,11.61,8.83,11.57a62.54,62.54,0,0,0,2.19-6.22,42.2,42.2,0,0,0,4.49,3.73A50,50,0,0,0,212.82,163.25Z" style="fill:#263238"></path><path d="M207.76,167.14a2.11,2.11,0,1,0,1.56-2.53A2.09,2.09,0,0,0,207.76,167.14Z" style="fill:#4D1313"></path><path d="M208.76,165.9s-7.38-5.65-7.66-2.74a4.4,4.4,0,0,0,1.67,4.16s-1,3.36.42,3.7,6-2.61,6-3.4A6.6,6.6,0,0,0,208.76,165.9Z" style="fill:#4D1313"></path><path d="M210,165.57s2.36-7.48,3.58-5.11a5.28,5.28,0,0,1,.51,4.14s1.83,2.5,1.09,3.32-4.53,0-4.79-.74A8,8,0,0,1,210,165.57Z" style="fill:#4D1313"></path></g></svg>